<svg xmlns="http://www.w3.org/2000/svg" xmlns:xlink="http://www.w3.org/1999/xlink" viewBox="0 0 500 500"><defs><clipPath id="freepik--clip-path--inject-476"><path d="M343.69,348.43a2.32,2.32,0,0,1-.49.83c-3.54,3.35-18.65,7.07-31.63,9.75-10.75,2.23-20,3.74-20,3.74s-7.12-59.17-7.12-65.39-11.48-106.92-11.48-106.92l27.52-1.19L337,187.67s.22,2.69.59,7.39C340,225,348.28,336.62,343.69,348.43Z" style="fill:#9AE975;stroke:#263238;stroke-linecap:round;stroke-linejoin:round"></path></clipPath><clipPath id="freepik--clip-path-2--inject-476"><path d="M326.68,175,400,194.34S374.23,272.55,369,282.25l-8.74,68.18s-46.84-2.06-68.38-8.57c0,0,13.62-71,14.35-80.47S326.68,175,326.68,175Z" style="fill:#9AE975;stroke:#263238;stroke-linecap:round;stroke-linejoin:round"></path></clipPath><clipPath id="freepik--clip-path-3--inject-476"><polygon points="233.62 166.73 223.92 331.48 128.63 328.35 136.15 202.11 138.49 162.91 180.01 164.58 233.62 166.73" style="fill:#757575;stroke:#263238;stroke-linecap:round;stroke-linejoin:round"></polygon></clipPath></defs><g id="freepik--Documents--inject-476"><rect x="373.07" y="242.94" width="74.72" height="49.06" rx="4.54" transform="translate(-36.09 65.94) rotate(-8.8)" style="fill:none;stroke:#263238;stroke-linecap:round;stroke-linejoin:round"></rect><line x1="371.44" y1="259.81" x2="445.28" y2="248.38" style="fill:none;stroke:#263238;stroke-linecap:round;stroke-linejoin:round"></line><rect x="428.84" y="262.16" width="12.07" height="17.38" transform="translate(-36.32 69.72) rotate(-8.8)" style="fill:none;stroke:#263238;stroke-linecap:round;stroke-linejoin:round"></rect><path d="M432.42,266c2.52-3,6.66-1,5.69,8.31l3.69,1.83.36,2.34-11.92,1.85-.49-3.13,4.5-1.75S430.05,268.83,432.42,266Z" style="fill:none;stroke:#263238;stroke-linecap:round;stroke-linejoin:round"></path><path d="M406.55,287s8.62.07,6.15-1.65-2.84-3.46-.74-3.49,5.62,4,5.34,1.54,1.24-.86,1.53-.7,2.78-.84,2.9-.55-.05,1.1,8.06-.15" style="fill:none;stroke:#263238;stroke-linecap:round;stroke-linejoin:round"></path><line x1="377.7" y1="267.48" x2="413.86" y2="261.88" style="fill:none;stroke:#263238;stroke-linecap:round;stroke-linejoin:round"></line><line x1="378.34" y1="271.58" x2="399.64" y2="268.28" style="fill:none;stroke:#263238;stroke-linecap:round;stroke-linejoin:round"></line><line x1="379.46" y1="278.81" x2="409.17" y2="274.21" style="fill:none;stroke:#263238;stroke-linecap:round;stroke-linejoin:round"></line><line x1="388.68" y1="251.77" x2="424.94" y2="246.15" style="fill:none;stroke:#263238;stroke-linecap:round;stroke-linejoin:round"></line><polygon points="43.35 226.44 124.42 210.25 152.73 346.17 66.56 364.65 43.35 226.44" style="fill:none;stroke:#263238;stroke-linecap:round;stroke-linejoin:round"></polygon><line x1="63.3" y1="345.26" x2="149.3" y2="329.69" style="fill:none;stroke:#263238;stroke-linecap:round;stroke-linejoin:round"></line><line x1="139.11" y1="318.13" x2="98.04" y2="325.71" style="fill:none;stroke:#263238;stroke-linecap:round;stroke-linejoin:round"></line><line x1="133.02" y1="311.31" x2="121.02" y2="313.08" style="fill:none;stroke:#263238;stroke-linecap:round;stroke-linejoin:round"></line><line x1="134.85" y1="297.43" x2="73.55" y2="308.93" style="fill:none;stroke:#263238;stroke-linecap:round;stroke-linejoin:round"></line><line x1="53.95" y1="289.58" x2="137.86" y2="274.77" style="fill:none;stroke:#263238;stroke-linecap:round;stroke-linejoin:round;stroke-dasharray:1,2"></line><line x1="143.11" y1="341.77" x2="92.14" y2="352.45" style="fill:none;stroke:#263238;stroke-linecap:round;stroke-linejoin:round"></line><line x1="141.59" y1="337.47" x2="117.63" y2="341.77" style="fill:none;stroke:#263238;stroke-linecap:round;stroke-linejoin:round"></line><line x1="128.63" y1="265.81" x2="86.6" y2="274.14" style="fill:none;stroke:#263238;stroke-linecap:round;stroke-linejoin:round"></line><line x1="125.31" y1="256.48" x2="111.92" y2="259.11" style="fill:none;stroke:#263238;stroke-linecap:round;stroke-linejoin:round"></line><line x1="124.52" y1="250" x2="63.3" y2="261.8" style="fill:none;stroke:#263238;stroke-linecap:round;stroke-linejoin:round"></line><line x1="118.96" y1="218.46" x2="102.43" y2="221.88" style="fill:none;stroke:#263238;stroke-linecap:round;stroke-linejoin:round"></line><line x1="63.3" y1="230.21" x2="49.04" y2="232.98" style="fill:none;stroke:#263238;stroke-linecap:round;stroke-linejoin:round"></line><path d="M54.23,240.84a7.41,7.41,0,0,1,4-4.64" style="fill:none;stroke:#263238;stroke-linecap:round;stroke-linejoin:round"></path><path d="M60.57,250A7.45,7.45,0,0,1,54,242.84" style="fill:none;stroke:#263238;stroke-linecap:round;stroke-linejoin:round"></path><path d="M66.13,248.3A6.9,6.9,0,0,1,62.5,250" style="fill:none;stroke:#263238;stroke-linecap:round;stroke-linejoin:round"></path><path d="M61.27,235.52a7.46,7.46,0,0,1,6.22,11.18" style="fill:none;stroke:#263238;stroke-linecap:round;stroke-linejoin:round"></path><path d="M75.85,237.4c-1.33-.42-2.65-.9-4-1.2" style="fill:none;stroke:#263238;stroke-linecap:round;stroke-linejoin:round"></path><path d="M87.19,238.36c-1.13,2.69-7.45.24-9.29-.32" style="fill:none;stroke:#263238;stroke-linecap:round;stroke-linejoin:round"></path><path d="M76.37,231.22,88.19,234c-.19.79-.34,1.59-.49,2.38" style="fill:none;stroke:#263238;stroke-linecap:round;stroke-linejoin:round"></path><path d="M70.52,234c1.26-3,.76-4,3.9-3.27" style="fill:none;stroke:#263238;stroke-linecap:round;stroke-linejoin:round"></path></g><g id="freepik--speech-bubble-2--inject-476"><path d="M214.75,446.27l15.65,4.8-11.63-13.7a40.22,40.22,0,0,0,10.3-25.74" style="fill:none;stroke:#263238;stroke-linecap:round;stroke-linejoin:round"></path><path d="M195.76,452.31a52.6,52.6,0,0,0,14.67-7.37" style="fill:none;stroke:#263238;stroke-linecap:round;stroke-linejoin:round"></path><path d="M135.37,423.21c4.61,22.21,29.15,35.89,54.82,30.57" style="fill:none;stroke:#263238;stroke-linecap:round;stroke-linejoin:round"></path><path d="M139.11,398.17a40.17,40.17,0,0,0-2.5,5.82" style="fill:none;stroke:#263238;stroke-linecap:round;stroke-linejoin:round"></path><path d="M228.32,403.93c-4.6-22.21-29.15-35.89-54.81-30.56a51.42,51.42,0,0,0-29.72,17.69" style="fill:none;stroke:#263238;stroke-linecap:round;stroke-linejoin:round"></path><path d="M201.09,395.79c-7.39-8.05-17.46-2.47-21.65,5.7-6.92-6-18.35-7.47-22.21,2.76-6.52,17.23,15.78,27.74,26.1,31.54,1.17.44,2.13.81,2.93,1.08.65-.55,1.41-1.25,2.33-2.09C196.75,427.41,213.55,409.37,201.09,395.79Z" style="fill:none;stroke:#263238;stroke-linecap:round;stroke-linejoin:round"></path></g><g id="freepik--hand-2--inject-476"><path d="M321.59,327.71s-3.56,43.08,1.59,53.53,7.73,81.85,5.42,90.83c0,0,16.58,4.18,23.14-1.76s16.65-.22,33.27-6,4.63-134.07,4.63-134.07l.51-46.67-27.41-24.42Z" style="fill-opacity:0.7000000000000001;opacity:0.2"></path><path d="M343.69,348.43a2.32,2.32,0,0,1-.49.83c-3.54,3.35-18.65,7.07-31.63,9.75-10.75,2.23-20,3.74-20,3.74s-7.12-59.17-7.12-65.39-11.48-106.92-11.48-106.92l27.52-1.19L337,187.67s.22,2.69.59,7.39C340,225,348.28,336.62,343.69,348.43Z" style="fill:#9AE975"></path><g style="clip-path:url(#freepik--clip-path--inject-476)"><path d="M343.69,348.43,311.57,355l-12.13,2.49c-3.29-3.23-5.8-3.29-5.8-3.29l-1-9.05-1.57-14.81-13.82-130.3c3-2.07,4.48-6.6,4.48-6.6l18.5-.67,32.05-1.17,5.29,3.42C340,225,348.28,336.62,343.69,348.43Z" style="fill-opacity:0.7000000000000001;opacity:0.2"></path><path d="M343.69,348.43,311.57,355l-12.13,2.49c-3.29-3.23-5.8-3.29-5.8-3.29l-1-9.05-1.57-14.81-13.82-130.3c3-2.07,4.48-6.6,4.48-6.6l18.5-.67,32.05-1.17,5.29,3.42C340,225,348.28,336.62,343.69,348.43Z" style="fill:none;stroke:#263238;stroke-linecap:round;stroke-linejoin:round"></path><polygon points="295.34 310.07 306.06 310.05 306.07 313.4 303.09 314.46 296.22 315.21 295.34 310.07" style="fill:#9AE975;stroke:#263238;stroke-linecap:round;stroke-linejoin:round"></polygon><polygon points="296 316.97 303.88 316.7 305.9 317.66 305.8 322.11 296.6 322.21 296 316.97" style="fill:#9AE975;stroke:#263238;stroke-linecap:round;stroke-linejoin:round"></polygon><polygon points="297.26 324.08 306.26 323.43 306.16 326.8 301.81 328.34 297.21 328.08 297.26 324.08" style="fill:#9AE975;stroke:#263238;stroke-linecap:round;stroke-linejoin:round"></polygon><polygon points="297.8 329.76 305.07 330.13 305.73 331.99 304.67 334.04 298.17 334.46 297.05 331.29 297.8 329.76" style="fill:#9AE975;stroke:#263238;stroke-linecap:round;stroke-linejoin:round"></polygon><path d="M306.18,336.27l1,2.91a2.18,2.18,0,0,1,0,2,1.65,1.65,0,0,1-1.52.54c-.56-.05-1.11-.24-1.67-.27-1.69-.07-3.24,1.32-4.9,1-.65-1.8-2.29-4.44-.07-5.25C299.43,337.07,306.42,336.93,306.18,336.27Z" style="fill:#9AE975;stroke:#263238;stroke-linecap:round;stroke-linejoin:round"></path><path d="M306.15,344.46a16.41,16.41,0,0,1,.34,2.1,2.68,2.68,0,0,1-.74,2.51,3,3,0,0,1-1.39.37l-5.78.52a26.52,26.52,0,0,1-.05-3.28c.34-1.3.1-1.19,1.33-1.72C301.81,344.13,304.15,345.45,306.15,344.46Z" style="fill:#9AE975;stroke:#263238;stroke-linecap:round;stroke-linejoin:round"></path><path d="M285.13,203s2.18,21.07,2.28,25.24" style="fill:none;stroke:#263238;stroke-linecap:round;stroke-linejoin:round"></path><line x1="289.83" y1="203.23" x2="290.85" y2="214.84" style="fill:none;stroke:#263238;stroke-linecap:round;stroke-linejoin:round"></line><polygon points="306.12 198.84 307.44 212.45 309.29 212.63 308.69 198.97 306.12 198.84" style="fill:#9AE975;stroke:#263238;stroke-linecap:round;stroke-linejoin:round"></polygon><path d="M343.69,348.43a2.32,2.32,0,0,1-.49.83c-3.54,3.35-18.65,7.07-31.63,9.75v-9l-18.89-4.84-2.85-.73,1.28-14.08L296,276.56l4.27-83.75.18-3.56L337,187.67s.22,2.69.59,7.39C340,225,348.28,336.62,343.69,348.43Z" style="fill-opacity:0.7000000000000001;opacity:0.2"></path></g><path d="M343.69,348.43a2.32,2.32,0,0,1-.49.83c-3.54,3.35-18.65,7.07-31.63,9.75-10.75,2.23-20,3.74-20,3.74s-7.12-59.17-7.12-65.39-11.48-106.92-11.48-106.92l27.52-1.19L337,187.67s.22,2.69.59,7.39C340,225,348.28,336.62,343.69,348.43Z" style="fill:none;stroke:#263238;stroke-linecap:round;stroke-linejoin:round"></path><path d="M363.06,482.7c.23-2.11-3.09-32.38-3.15-35.67-.16-9-2.71-20.81-2.71-20.81-3.56-9.1-6.33-30.07-15.83-43.52S331.88,353.43,330.3,340s-1.19-12.27-.79-24.19A175.41,175.41,0,0,0,328.32,289c-.79-7.92-2.37-21.85,0-28.34s8.57-8,15.36-1.5,9.56,33.15,9.56,36.44,0,13.57,2.38,17.53c0,0,13.45-6.88,13.45-8.78s-.4-18.69,1.58-19.59l-7.91-25.6,15-5.33a39,39,0,0,1,7.24,8.7,46.94,46.94,0,0,1,4.23,8.49c6.33,16.79,16.5,28.5,18.6,33.33s0,43.19,0,50.32-4.6,40-4.48,45.53c.09,4,2.79,18.88,5.48,30.29,1,4.4,7.07,36.28,8,38.81Z" style="fill:#fff"></path><path d="M374.9,283.07c-.1,2.15,2.47,19.29,2.47,19.29,1.78,4.27-7.94,18.83-7.94,18.83-2.1,1.18-3,8.5-3,8.5-6.58-1.46-21.65-16.61-21.65-16.61S343,319.29,341,334.66s10.68,51.88,16.08,77.09S359.91,447,359.91,447c-.16-9-2.71-20.81-2.71-20.81-3.56-9.1-6.33-30.07-15.83-43.52S331.88,353.43,330.3,340s-1.19-12.27-.79-24.19A175.41,175.41,0,0,0,328.32,289c-.79-7.92-2.37-21.85,0-28.34s8.57-8,15.36-1.5,9.56,33.15,9.56,36.44,0,13.57,2.38,17.53c0,0,13.45-6.88,13.45-8.78s-.4-18.69,1.58-19.59l-7.91-25.6,15-5.33a39,39,0,0,1,7.24,8.7C380.13,272.23,375,281.73,374.9,283.07Z" style="fill:#9AE975;opacity:0.4"></path><path d="M400.12,402.85c.66-6,2.63-20.26,3.88-29.16-1.53,6.95-4,10.47-4,10.47s4.26-51,4.68-54.11,4.72-17.09,3.14-25.75c2.1,4.82,0,43.19,0,50.32s-4.6,40-4.48,45.53c.09,4,4.38,29.49,7.07,40.9C404.63,432.65,399.46,408.88,400.12,402.85Z" style="fill:#9AE975;opacity:0.4"></path><path d="M416.79,469.25c-3.16-9.1-13.31-63.6-13.43-69.1s4.48-38.41,4.48-45.53,2.1-45.5,0-50.32-12.27-16.54-18.6-33.33a43.66,43.66,0,0,0-11.47-17.19l-15,5.33,7.91,25.6c-2,.9-1.58,17.69-1.58,19.59s-13.45,8.78-13.45,8.78c-2.38-4-2.38-14.24-2.38-17.53s-2.77-29.95-9.56-36.44-13-5-15.36,1.5-.79,20.42,0,28.34a175.41,175.41,0,0,1,1.19,26.84c-.4,11.92-.8,10.74.79,24.19s1.58,29.27,11.07,42.72,12.27,34.42,15.83,43.52c0,0,6.72,48.57,5.86,56.48" style="fill:none;stroke:#263238;stroke-linecap:round;stroke-linejoin:round"></path><path d="M355.62,313.08s2.37,11.07,7.71,16.61" style="fill:none;stroke:#263238;stroke-linecap:round;stroke-linejoin:round"></path><path d="M357.06,318.13s10,3.06,14.18,3.25" style="fill:none;stroke:#263238;stroke-linecap:round;stroke-linejoin:round"></path><path d="M369.07,304.3s7.12-3.29,11.67-1.31" style="fill:none;stroke:#263238;stroke-linecap:round;stroke-linejoin:round"></path><path d="M370.65,284.71s5.54-.51,6.72-3.28" style="fill:none;stroke:#263238;stroke-linecap:round;stroke-linejoin:round"></path><path d="M343.2,385.52s10.64,13.21,13.8,19.93" style="fill:none;stroke:#263238;stroke-linecap:round;stroke-linejoin:round"></path><path d="M405.07,327.71c-1.78,10.49-4.16,39.17-4.95,44.31" style="fill:none;stroke:#263238;stroke-linecap:round;stroke-linejoin:round"></path><path d="M408.47,307.93c.3,9.5-2,14.44-2,14.44" style="fill:none;stroke:#263238;stroke-linecap:round;stroke-linejoin:round"></path><path d="M326.68,175,400,194.34S374.23,272.55,369,282.25l-8.74,68.18s-46.84-2.06-68.38-8.57c0,0,13.62-71,14.35-80.47S326.68,175,326.68,175Z" style="fill:#9AE975"></path><g style="clip-path:url(#freepik--clip-path-2--inject-476)"><path d="M310.91,257.19l16.16-69.09s6.95-3.45,9.64-6.6l52.53,14.94s.16,5.15,3.17,8.45L365.9,281.28l-6.43,56.31s-8.55.68-9.37,7c0,0-27.72,1.5-46.31-3.4,0,0-2.19-6.83-5.54-11.15Z" style="fill-opacity:0.7000000000000001;opacity:0.2"></path><path d="M310.91,257.19l16.16-69.09s6.95-3.45,9.64-6.6l52.53,14.94s.16,5.15,3.17,8.45L365.9,281.28l-6.43,56.31s-8.55.68-9.37,7c0,0-27.72,1.5-46.31-3.4,0,0-2.19-6.83-5.54-11.15Z" style="fill:none;stroke:#263238;stroke-linecap:round;stroke-linejoin:round"></path><path d="M324.36,260.78s4.77-18,21.57-14.77,7.31,25.41,7.31,25.41.1,17.9-13.53,15.43C327.89,284.71,321.59,278.22,324.36,260.78Z" style="fill:#9AE975;stroke:#263238;stroke-linecap:round;stroke-linejoin:round"></path><path d="M333.46,194.67s-5.08,20.57-6.39,24.53" style="fill:none;stroke:#263238;stroke-linecap:round;stroke-linejoin:round"></path><line x1="337.81" y1="196.45" x2="334.85" y2="207.73" style="fill:none;stroke:#263238;stroke-linecap:round;stroke-linejoin:round"></line><polygon points="374.9 204.36 385.01 207.92 383.9 211.09 380.74 211.09 374.01 209.51 374.9 204.36" style="fill:#9AE975;stroke:#263238;stroke-linecap:round;stroke-linejoin:round"></polygon><polygon points="373.22 211.09 380.74 213.46 382.32 215.04 380.74 219.2 372.03 216.23 373.22 211.09" style="fill:#9AE975;stroke:#263238;stroke-linecap:round;stroke-linejoin:round"></polygon><polygon points="372.03 218.21 380.74 220.61 379.51 223.75 374.9 223.75 370.65 221.97 372.03 218.21" style="fill:#9AE975;stroke:#263238;stroke-linecap:round;stroke-linejoin:round"></polygon><polygon points="370.65 223.75 377.37 226.52 377.37 228.49 375.69 230.08 369.43 228.3 369.43 224.93 370.65 223.75" style="fill:#9AE975;stroke:#263238;stroke-linecap:round;stroke-linejoin:round"></polygon><path d="M376.38,232.68v3.08a2.2,2.2,0,0,1-.61,1.88,1.69,1.69,0,0,1-1.62,0c-.51-.24-1-.6-1.48-.81-1.57-.63-3.5.16-5-.68,0-1.91-.67-4.94,1.69-5C369.75,231.18,376.38,233.38,376.38,232.68Z" style="fill:#9AE975;stroke:#263238;stroke-linecap:round;stroke-linejoin:round"></path><path d="M373.61,240.39a14.52,14.52,0,0,1-.38,2.09c-.22.89-.65,1.88-1.54,2.12a2.92,2.92,0,0,1-1.43-.12L364.64,243a27.5,27.5,0,0,1,1-3.1c.76-1.11.5-1.09,1.83-1.18C369.63,238.63,371.39,240.66,373.61,240.39Z" style="fill:#9AE975;stroke:#263238;stroke-linecap:round;stroke-linejoin:round"></path><polygon points="354.63 197.84 351.26 211.09 352.94 211.88 357 198.82 354.63 197.84" style="fill:#9AE975;stroke:#263238;stroke-linecap:round;stroke-linejoin:round"></polygon><polygon points="312.4 286.82 322.78 289.51 321.94 292.75 318.79 293.03 311.95 292.02 312.4 286.82" style="fill:#9AE975;stroke:#263238;stroke-linecap:round;stroke-linejoin:round"></polygon><polygon points="311.3 293.67 318.99 295.39 320.71 296.83 319.49 301.11 310.56 298.89 311.3 293.67" style="fill:#9AE975;stroke:#263238;stroke-linecap:round;stroke-linejoin:round"></polygon><polygon points="310.73 300.87 319.61 302.51 318.65 305.74 314.06 306.14 309.67 304.73 310.73 300.87" style="fill:#9AE975;stroke:#263238;stroke-linecap:round;stroke-linejoin:round"></polygon><polygon points="309.82 306.5 316.76 308.69 316.93 310.66 315.39 312.38 309 311.14 308.71 307.79 309.82 306.5" style="fill:#9AE975;stroke:#263238;stroke-linecap:round;stroke-linejoin:round"></polygon><path d="M316.29,314.91l.27,3.07a2.19,2.19,0,0,1-.45,1.93,1.67,1.67,0,0,1-1.61.13c-.53-.19-1-.51-1.55-.67-1.61-.5-3.47.45-5-.26-.18-1.9-1.09-4.86,1.25-5.09C309.56,314,316.35,315.61,316.29,314.91Z" style="fill:#9AE975;stroke:#263238;stroke-linecap:round;stroke-linejoin:round"></path><path d="M314.2,322.83A15.06,15.06,0,0,1,314,325c-.15.9-.49,1.93-1.35,2.24a2.92,2.92,0,0,1-1.44,0l-5.72-1a27.16,27.16,0,0,1,.77-3.18c.66-1.17.4-1.13,1.72-1.33C310.08,321.42,312,323.29,314.2,322.83Z" style="fill:#9AE975;stroke:#263238;stroke-linecap:round;stroke-linejoin:round"></path><path d="M355.62,332.54S358,306,358,303.33" style="fill:none;stroke:#263238;stroke-linecap:round;stroke-linejoin:round"></path><path d="M350.87,331.35s1-13.8,1.18-16.2" style="fill:none;stroke:#263238;stroke-linecap:round;stroke-linejoin:round"></path><polygon points="332.32 321.38 329.11 337.09 332.32 337.09 334.65 321.38 332.32 321.38" style="fill:#9AE975;stroke:#263238;stroke-linecap:round;stroke-linejoin:round"></polygon><path d="M369.17,281.86c-6.94-1.45-13.13-3.58-17.71-6.65,0,0,3.32,9.54,15.09,25.8l-6.33,49.42s-30.57-1.34-53.67-5.29c7.1-20,20-57.9,18.47-65.41-2.07-10.31,5.24-22.48,5.24-22.48,23.11-4.16,45.52-21.63,60.9-36.4C383.33,244,372.64,275,369.17,281.86Z" style="fill-opacity:0.7000000000000001;opacity:0.2"></path></g><path d="M326.68,175,400,194.34S374.23,272.55,369,282.25l-8.74,68.18s-46.84-2.06-68.38-8.57c0,0,13.62-71,14.35-80.47S326.68,175,326.68,175Z" style="fill:none;stroke:#263238;stroke-linecap:round;stroke-linejoin:round"></path><path d="M367.33,330.69,357,405.45c-2.3-4.89-8.57-13.23-11.81-17.4-1.2-1.56-2-2.53-2-2.53l-1.83-2.82c-9.49-13.45-9.49-29.27-11.07-42.72s-1.19-12.27-.79-24.19A175.41,175.41,0,0,0,328.32,289c-.79-7.92-2.37-21.85,0-28.34,1.16-3.18,3.25-5.16,5.87-5.58s6,.78,9.49,4.08c6.79,6.49,9.56,33.15,9.56,36.44s0,13.57,2.38,17.53C355.62,313.08,362,325.15,367.33,330.69Z" style="fill:#fff"></path><path d="M340.58,377.37c2.16,2.76,3.63,6.74,4.61,10.68-1.2-1.56-2-2.53-2-2.53l-1.83-2.82c-9.49-13.45-9.49-29.27-11.07-42.72s-1.19-12.27-.79-24.19A175.41,175.41,0,0,0,328.32,289c-.79-7.92-2.37-21.85,0-28.34,1.16-3.18,3.25-5.16,5.87-5.58,5,1.42,10,6.51,11.74,15.22,3,14.62-10.53,2.81-13.66,15.2s1.42,15.73,3.29,18.85-.52,10-3.29,19.24S334.65,369.78,340.58,377.37Z" style="fill:#9AE975;opacity:0.4"></path><path d="M367.33,330.69c-5.34-5.54-11.71-17.61-11.71-17.61-2.38-4-2.38-14.24-2.38-17.53s-2.77-29.95-9.56-36.44-13-5-15.36,1.5-.79,20.42,0,28.34a175.41,175.41,0,0,1,1.19,26.84c-.4,11.92-.8,10.74.79,24.19s1.58,29.27,11.07,42.72l1.83,2.82s10.64,13.21,13.8,19.93" style="fill:none;stroke:#263238;stroke-linecap:round;stroke-linejoin:round"></path><path d="M332.32,299.05s9.07-4.69,13.61-4.29" style="fill:none;stroke:#263238;stroke-linecap:round;stroke-linejoin:round"></path></g></svg>