<svg xmlns="http://www.w3.org/2000/svg" xmlns:xlink="http://www.w3.org/1999/xlink" id="Layer_1" data-name="Layer 1" viewBox="0 0 601 515"><defs><style> .cls-1, .cls-2, .cls-3, .cls-4 { stroke-width: 0px; } .cls-1, .cls-5 { fill: #000; } .cls-2, .cls-6 { fill: none; } .cls-5 { stroke: #fff; stroke-miterlimit: 10; } .cls-7 { clip-path: url(#clippath); } .cls-3 { fill: #fff; } .cls-6 { stroke: #000; } .cls-4 { fill: #b9ff66; } </style><clipPath id="clippath"><rect class="cls-2" x="65.6" y="342.6" width="70.3" height="70.3" transform="translate(-237.6 181.9) rotate(-45)"></rect></clipPath></defs><g class="cls-7"><path class="cls-5" d="M118,360.6l31.5,17.1-31.5,17.3-17.2,31.4-17.2-31.4-31.5-17.3,31.5-17.1,17.2-31.5,17.2,31.5Z"></path></g><path class="cls-6" d="M557.6,404.4c-1.9,3.4-5.4,5.9-10.5,7.5-5.1,1.5-11.7,2.1-19.7,1.8-15.9-.7-37.1-5.1-62.1-12.7-50-15.3-115.2-43.7-183.6-81.4-68.4-37.8-127.2-77.7-166.8-111.9-19.8-17.1-34.8-32.7-43.9-45.8-4.5-6.6-7.6-12.5-9-17.6-1.4-5.1-1.2-9.5.7-12.9,1.9-3.4,5.4-5.9,10.5-7.5,5.1-1.5,11.7-2.1,19.7-1.8,15.9.7,37.1,5.1,62.1,12.7,50,15.3,115.2,43.7,183.6,81.4,68.4,37.8,127.2,77.7,166.8,111.9,19.8,17.1,34.8,32.7,43.9,45.8,4.5,6.6,7.6,12.5,9,17.6,1.4,5.1,1.2,9.5-.7,12.9Z"></path><path class="cls-6" d="M537.4,441.1c-1.9,3.4-5.4,5.9-10.5,7.5-5.1,1.5-11.7,2.1-19.7,1.8-15.9-.7-37.1-5.1-62.1-12.7-50-15.3-115.2-43.7-183.6-81.4-68.4-37.8-127.2-77.7-166.8-111.9-19.8-17.1-34.8-32.7-43.9-45.8-4.5-6.6-7.6-12.5-9-17.6-1.4-5.1-1.2-9.5.7-12.9,1.9-3.4,5.4-5.9,10.5-7.5,5.1-1.5,11.7-2.1,19.7-1.8,15.9.7,37.1,5.1,62.1,12.7,50,15.3,115.2,43.7,183.6,81.4,68.4,37.8,127.2,77.7,166.8,111.9,19.8,17.1,34.8,32.7,43.9,45.8,4.5,6.6,7.6,12.5,9,17.6,1.4,5.1,1.2,9.5-.7,12.9Z"></path><path class="cls-6" d="M517.1,477.8c-1.9,3.4-5.4,5.9-10.5,7.5-5.1,1.5-11.7,2.1-19.7,1.8-15.9-.7-37.1-5.1-62.1-12.7-50-15.3-115.2-43.7-183.6-81.4-68.4-37.8-127.2-77.7-166.8-111.9-19.8-17.1-34.8-32.7-43.9-45.8-4.5-6.6-7.6-12.5-9-17.6-1.4-5.1-1.2-9.5.7-12.9,1.9-3.4,5.4-5.9,10.5-7.5,5.1-1.5,11.7-2.1,19.7-1.8,15.9.7,37.1,5.1,62.1,12.7,50,15.3,115.2,43.7,183.6,81.4,68.4,37.8,127.2,77.7,166.8,111.9,19.8,17.1,34.8,32.7,43.9,45.8,4.5,6.6,7.6,12.5,9,17.6,1.4,5.1,1.2,9.5-.7,12.9Z"></path><circle class="cls-4" cx="124.5" cy="119.6" r="15.5"></circle><circle class="cls-4" cx="414" cy="450.1" r="10"></circle><circle class="cls-1" cx="74.5" cy="79.6" r="23.5"></circle><path class="cls-1" d="M299,398.7c-6.3,2.2-13.5-2.1-16-9.5l-39-114.3,22.8-7.8,39,114.4c2.5,7.3-.5,15-6.8,17.2Z"></path><path class="cls-1" d="M295.6,400.1c-1.8,0-3.7-.4-5.5-1.3-3.6-1.8-6.5-5.2-7.9-9.3l-39-114.3c-.2-.4,0-.9.5-1.1l22.8-7.8c.2,0,.5,0,.7,0,.2.1.4.3.4.5l39,114.4c2.6,7.8-.7,15.9-7.4,18.3-1.1.4-2.4.6-3.6.6ZM245.1,275.4l38.7,113.4c1.3,3.7,3.8,6.8,7,8.3,2.6,1.3,5.4,1.5,7.9.6,5.8-2,8.6-9.2,6.3-16.1l-38.8-113.6-21.1,7.2Z"></path><path class="cls-4" d="M262.7,168.5l-73.7,52.6-28.7,29.8-11.3,19.9v.2c-2.3,3.4-1,11.4,3.2,19.5,4.1,8,9.9,13.6,14,13.9h-.1c0,0,21.7,2.4,21.7,2.4l40.5-6.5,86-30.8,106.9,18.3h.7c-26.9-5-63.1-40.9-89.5-91.7-26.3-50.8-34.7-100.9-23.1-125.7h0l-46,96.8-.6,1.3Z"></path><path class="cls-3" d="M439.7,285.7c26.4-13.7,21.3-76-11.4-139-32.7-63.1-80.7-103-107.1-89.3-26.4,13.7-21.3,76,11.4,139,32.7,63.1,80.7,103,107.1,89.3Z"></path><path class="cls-1" d="M428.1,289.3c-11.5,0-25.4-6.4-40.3-18.9-20.3-17-40.3-43.2-56.1-73.8-24-46.4-33.9-93.9-25.2-121.2,2.9-9.1,7.8-15.4,14.4-18.8,13.2-6.7,31.7-1,52.2,16.1,20.3,17,40.3,43.2,56.1,73.8,24,46.4,33.9,93.9,25.2,121.2-2.9,9.1-7.8,15.4-14.4,18.8-3.6,1.9-7.6,2.8-11.9,2.8ZM332.9,55.5c-4,0-7.8.8-11.2,2.6-6.2,3.2-10.8,9.2-13.5,17.9-8.6,26.8,1.3,73.9,25.1,119.9,32.4,62.6,80,102.6,106,89.2,6.2-3.2,10.8-9.2,13.5-17.9,8.6-26.8-1.3-73.9-25.1-119.9-28.2-54.4-67.9-91.8-94.8-91.8Z"></path><path class="cls-1" d="M428.1,289.3c-11.5,0-25.4-6.4-40.3-18.9-20.3-17-40.3-43.2-56.1-73.8-24-46.4-33.9-93.9-25.2-121.2,2.9-9.1,7.8-15.4,14.4-18.8,8.8-4.5,20.3-3.4,33.3,3.3,12.4,6.4,25.8,17.7,38.9,32.7.3.4.3.9,0,1.2-.4.3-.9.3-1.2,0-26.5-30.5-53.4-44.1-70.1-35.5-6.2,3.2-10.8,9.2-13.5,17.9-8.6,26.8,1.3,73.9,25.1,119.9,28.2,54.4,67.9,91.8,94.8,91.8s7.8-.8,11.2-2.6c6.2-3.2,10.8-9.2,13.5-17.9,8.6-26.8-1.3-73.9-25.1-119.9-7.1-13.7-15.1-26.6-23.6-38.3-.3-.4-.2-.9.2-1.2.4-.3.9-.2,1.2.2,8.7,11.8,16.6,24.8,23.8,38.5,24,46.3,33.9,93.9,25.2,121.1-2.9,9.1-7.8,15.4-14.4,18.8-3.6,1.9-7.6,2.8-11.9,2.8Z"></path><path class="cls-4" d="M379.8,205.4c6.1-3.2,4.9-17.6-2.6-32.2-7.6-14.6-18.7-23.8-24.8-20.7-6.1,3.2-4.9,17.6,2.6,32.2,7.6,14.6,18.7,23.8,24.8,20.7Z"></path><path class="cls-4" d="M377.1,206.9c-6.7,0-16.1-8.7-22.9-21.8-5.6-10.9-7.9-22.1-5.9-28.6.7-2.3,2-3.9,3.6-4.7,6.7-3.4,18.1,5.9,26,21.1,5.6,10.9,7.9,22.1,5.9,28.6-.7,2.3-2,3.9-3.6,4.7-.9.5-2,.7-3.1.7ZM355,152.8c-.8,0-1.6.2-2.3.5-1.3.7-2.2,1.9-2.8,3.8-1.9,6,.3,16.8,5.8,27.3,7.2,13.9,18.1,23.3,23.6,20.4,1.3-.7,2.2-1.9,2.8-3.8,1.9-6.1-.4-16.8-5.8-27.3-6.3-12.2-15.4-20.9-21.4-20.9Z"></path><path class="cls-1" d="M422.2,274.7c-10.1,0-22.2-5.6-35.3-16.6-17.8-14.9-35.2-37.8-49.1-64.6-21-40.6-29.7-82.2-22.1-106.1,2.5-8,6.8-13.6,12.6-16.6,13.4-6.9,33.1,1.1,54.1,21.7.4.4.4.9,0,1.2-.4.4-.9.4-1.2,0-20.4-20.1-39.4-27.9-52.1-21.4-5.4,2.8-9.4,8-11.8,15.6-7.5,23.4,1.1,64.6,22,104.8,24.6,47.6,59.3,80.3,82.9,80.3s6.8-.7,9.7-2.2c5.4-2.8,9.4-8,11.8-15.6,7.5-23.4-1.1-64.6-22-104.8-6.3-12.1-13.4-23.5-20.9-33.8-.3-.4-.2-.9.2-1.2.4-.3.9-.2,1.2.2,7.7,10.4,14.8,21.9,21.1,34.1,21,40.6,29.7,82.2,22.1,106.1-2.5,8-6.8,13.6-12.6,16.6-3.2,1.6-6.7,2.4-10.5,2.4Z"></path><path class="cls-1" d="M187.8,307.6h0l-21.7-2.4c-.1,0-.2,0-.4-.1-4.5-.7-10.1-6.3-14.2-14.3-4.4-8.3-5.7-16.5-3.3-20.3h0c0-.1,11.3-20.1,11.3-20.1,0,0,0-.1.1-.2l28.7-29.8h.1c0-.1,73.5-52.6,73.5-52.6l46.5-97.8c.1-.2.3-.4.5-.4.2,0,.5,0,.7,0,.4.2.6.7.4,1.1-11.8,25.3-2.5,75.5,23.1,124.9,25.6,49.5,61.4,86.2,88.9,91.2.4,0,.7.5.7.9,0,.4-.4.7-.9.8h-.7s0,0-.1,0l-106.7-18.3-85.8,30.7s-.1,0-.2,0l-40.5,6.5s0,0-.1,0ZM166.7,303.6l21.1,2.3,40.3-6.5,86-30.8c.2,0,.3,0,.4,0l96.1,16.5c-26-11.4-56.3-45-78.8-88.5-22.4-43.2-32.3-87-26.9-114.7l-41.4,87c0,.1-.2.2-.3.3l-73.7,52.6-28.6,29.7-11.3,20s0,0,0,0c-2,3.2-.7,11,3.3,18.6,3.9,7.5,9.5,13.1,13.3,13.4.2,0,.3,0,.4.1Z"></path><path class="cls-3" d="M262.8,168.1l46.5-97.7h0c-11.6,24.8-3.1,74.9,23.1,125.7,26.4,50.8,62.6,86.8,89.5,91.7h-.7s-106.8-18.3-106.8-18.3l-2.5-.4c-12.4-2.2-29-18.3-40.8-41.4-12.2-23.6-14.3-47.2-8.9-58.4l.5-1.2Z"></path><path class="cls-1" d="M422.1,288.7s0,0,0,0h-.8s0,0-.1,0l-106.8-18.3-2.5-.4c-13.1-2.3-29.8-19.1-41.5-41.8-13.3-25.8-13.9-48.7-8.9-59.1l.6-1.2,46.5-97.7c.1-.2.3-.4.5-.4.2,0,.5,0,.7,0,.4.2.6.7.4,1.1-11.8,25.3-2.5,75.5,23.1,124.9,25.6,49.5,61.4,86.2,88.9,91.2.4,0,.7.5.7.9-.1.4-.5.7-.9.7ZM304.9,81.9l-41.2,86.7-.6,1.2c-5,10.3-3.5,33.5,8.9,57.6,11.5,22.2,27.6,38.7,40.3,40.9l2.5.4,95.9,16.5c-26-11.4-56.3-45-78.8-88.5-22.4-43.2-32.3-87-26.9-114.7Z"></path><path class="cls-1" d="M186.6,307.5h0l-20.5-2.2c-.1,0-.2,0-.4-.1-4.5-.7-10.1-6.3-14.2-14.3-4.3-8.4-5.6-16.5-3.2-20.4h0c0-.1,11.3-20.1,11.3-20.1.2-.4.7-.5,1.2-.3.4.2.5.7.3,1.2l-11.3,20.1s0,0,0,0c-2,3.2-.7,11,3.3,18.6,3.9,7.5,9.5,13.1,13.3,13.4.1,0,.3,0,.4.1l20,2.2c.5,0,.8.5.7.9,0,.4-.4.8-.8.8Z"></path><path class="cls-3" d="M188,306.6c-6.7-.5-16-9.9-22.7-23-7.2-13.8-8.8-28.1-4.5-33.2l-11.7,20.4v.2c-2.3,3.4-1,11.4,3.2,19.5,4.1,8,9.9,13.6,14,13.9h-.1c0,0,21.9,2.3,21.9,2.3Z"></path><path class="cls-1" d="M188,307.5h0c-.2,0-.4,0-.5,0l-21.4-2.2c-.1,0-.2,0-.4-.1-4.5-.7-10.1-6.3-14.2-14.3-4.3-8.4-5.6-16.5-3.2-20.4h0c0-.1,10.3-18.1,10.3-18.1.4-1,.9-1.9,1.5-2.7.3-.4.8-.4,1.1-.2.4.3.5.7.2,1.1l-1.4,2.5c-2.3,6.2,0,18.4,5.9,29.9,6.5,12.5,15.3,21.6,21.6,22.4h.5c.5,0,.8.5.8,1,0,.5-.3.9-.7.9ZM166.6,303.6l15,1.5c-5.8-3.7-12.1-11.3-17.2-21.1-4.9-9.4-7.3-19.2-6.9-26.3l-7.8,13.6s0,0,0,0c-2,3.2-.7,11,3.3,18.6,3.9,7.5,9.5,13.1,13.3,13.4.1,0,.3,0,.4.1Z"></path><path class="cls-1" d="M226.8,300.5l1.7-.4c-9.3,2-24-12.1-34.4-32.2-10.6-20.4-12.6-40.9-5.1-46.9l-1,1-27.2,28.3c-4.5,5-2.8,19.4,4.4,33.3,6.9,13.4,16.8,23,23.5,22.9l38.1-6.1Z"></path><path class="cls-1" d="M188.7,307.4c-7.1,0-17-9.6-24.2-23.4-7.3-14.1-9.1-28.8-4.3-34.3l26.7-27.7c.5-.6,1-1.2,1.6-1.6.4-.3.9-.2,1.2,0,.3.4.3.9,0,1.2l-1.5,1.6c-5.4,7.3-2.7,25.9,6.8,44.3,10.3,19.8,24.6,33.4,33.4,31.8h.1c.5-.1.9.2,1,.6,0,.5-.2.9-.7,1,0,0,0,0-.1,0l-1.6.3h0l-38.1,6.1c0,0-.2,0-.2,0ZM184.6,226.9l-23.1,24.1c-4.3,4.9-2.4,19,4.5,32.3,6.7,13,16.2,22.4,22.6,22.4l33.7-5.4c-9.1-3.2-20.3-15.3-28.9-32-8.2-15.9-11.4-32-8.8-41.5Z"></path><path class="cls-1" d="M352.4,152.6c-6.1,3.1-5.2,17.7,2.6,32.2,13.1,24.2,23.6,21.4,24.8,21,0,0,0,0,0,0l-22.5,18.1c-6.6-9.3-12.9-19.6-18.7-30.8-5.5-10.7-10.2-21.3-13.9-31.7l27.7-8.8Z"></path><path class="cls-1" d="M357.2,224.7h-.1c-.2,0-.4-.2-.6-.4-6.8-9.5-13.1-19.9-18.8-30.9-5.4-10.5-10.1-21.2-13.9-31.8,0-.2,0-.5,0-.7.1-.2.3-.4.5-.4l27.7-8.8c.4-.1.9,0,1.1.5.2.4,0,.9-.4,1.1-1.3.7-2.3,2-2.9,4-1.9,6.1.4,17,5.9,27,12.8,23.7,22.7,21,23.7,20.6.4-.2.9,0,1.1.4.2.4.1.9-.2,1.1l-22.6,18c-.2.1-.4.2-.5.2ZM325.8,161.9c3.7,10.2,8.3,20.6,13.5,30.8,5.5,10.6,11.6,20.6,18.1,29.9l19.5-15.7c-4.5-.2-12.9-3.5-22.7-21.7-5.7-10.5-8.1-21.7-6-28.4.3-.9.6-1.6,1-2.3l-23.4,7.5Z"></path><path class="cls-1" d="M468.2,96.7c17.9-9.4,24.8-31.5,15.5-49.3-9.4-17.8-31.5-24.7-49.4-15.3-17.9,9.4-24.8,31.5-15.5,49.3,9.4,17.8,31.5,24.7,49.4,15.3Z"></path><path class="cls-3" d="M434.6,56.3c1.7-2.4,4.3-3.8,7.2-4.1,2.2-.2,4.2.2,6.1,1.4,1,.6,1.8,1.3,2.7,2.2.6-1.1,1.3-2,2.1-2.8,1.6-1.6,3.5-2.5,5.7-2.7,2.9-.3,5.7.5,7.9,2.5,2.2,1.9,3.5,4.6,3.9,7.7.4,3.2-.5,6.2-2.7,9.6-2,3-4.9,6.1-8.4,9.8-1.2,1.3-2.5,2.7-3.9,4.2-.4.4-.9.7-1.4.7-.5,0-1.1,0-1.5-.4-1.7-1.2-3.3-2.3-4.7-3.2-4.2-2.8-7.8-5.2-10.3-7.8-2.9-2.8-4.4-5.6-4.7-8.8-.3-3.1.4-6.1,2.1-8.4Z"></path><path class="cls-4" d="M569.8,98.7c13.1-13.1,13.1-34.4,0-47.5-13.1-13.1-34.3-13.1-47.5,0-13.1,13.1-13.1,34.4,0,47.5,13.1,13.1,34.4,13.1,47.5,0Z"></path><path class="cls-4" d="M546,109.3c-19,0-34.4-15.4-34.4-34.4s15.4-34.4,34.4-34.4,34.4,15.4,34.4,34.4-15.4,34.4-34.4,34.4ZM546,42.2c-18,0-32.7,14.6-32.7,32.7s14.6,32.7,32.7,32.7,32.7-14.6,32.7-32.7-14.6-32.7-32.7-32.7Z"></path><path class="cls-1" d="M555.1,78.2c-1.9,0-3.5.9-4.6,2.3l-11.3-4.4c0-.2,0-.3,0-.4,0-.3,0-.5,0-.8l11.6-5.4c1.1,1.2,2.6,2,4.4,2,3.2,0,5.9-2.6,5.9-5.9s-2.6-5.9-5.9-5.9-5.9,2.6-5.9,5.9,0,.5,0,.8l-11.6,5.4c-1.1-1.2-2.6-2-4.4-2-3.2,0-5.9,2.6-5.9,5.9s2.6,5.9,5.9,5.9,3.5-.9,4.6-2.3l11.3,4.4c0,.2,0,.3,0,.4,0,3.3,2.6,5.9,5.9,5.9s5.9-2.6,5.9-5.9c0-3.3-2.7-5.9-5.9-5.9Z"></path><path class="cls-1" d="M555.5,205.1c15.4-10.7,19.2-31.7,8.6-47-10.6-15.3-31.7-19-47-8.4-15.4,10.7-19.2,31.7-8.6,47,10.6,15.3,31.7,19,47,8.4Z"></path><path class="cls-3" d="M527.9,193.4l-4.9-26.8c-.2-1.4,1-2.5,2.3-2.2l29.2,8.3c1.5.4,1.8,2.4.6,3.3l-24.3,18.5c-1.1.9-2.7.3-2.9-1.1Z"></path><path class="cls-4" d="M536,314.7c19-9.2,26.9-32,17.7-50.9-9.2-18.9-32-26.7-51-17.4-19,9.2-26.9,32-17.7,50.9,9.2,18.9,32,26.7,51,17.4Z"></path><path class="cls-1" d="M519.2,319.4c-4.1,0-8.2-.6-12.3-2-9.9-3.3-17.9-10.2-22.5-19.5-4.6-9.3-5.3-19.8-2-29.7,6.9-20.3,29.1-31.4,49.5-24.6,9.9,3.3,17.9,10.2,22.5,19.5,4.6,9.3,5.3,19.8,2,29.7-5.6,16.3-20.9,26.6-37.2,26.6ZM519.6,243.4c-15.6,0-30.3,9.9-35.6,25.5-3.2,9.4-2.5,19.5,1.9,28.4,4.4,8.9,12.1,15.5,21.5,18.6,19.5,6.5,40.7-4.1,47.3-23.5,3.2-9.4,2.5-19.5-1.9-28.4-4.4-8.9-12.1-15.5-21.5-18.6-3.9-1.3-7.8-1.9-11.7-1.9Z"></path><path class="cls-1" d="M538.9,274.3c-.4,9.5-16.5,31.8-20.3,37-.4.5-1.2.5-1.6,0-2.4-3.9-10.5-17.1-14.6-27.7-1.7-4.2-2.7-8.1-2.6-10.8.4-10.8,9.6-19.2,20.4-18.8,10.8.5,19.2,9.6,18.8,20.4Z"></path><path class="cls-4" d="M525.6,279.9c3.5-3.5,3.5-9.2,0-12.7-3.5-3.5-9.2-3.5-12.7,0-3.5,3.5-3.5,9.2,0,12.7,3.5,3.5,9.2,3.5,12.7,0Z"></path></svg>